<svg xmlns="http://www.w3.org/2000/svg" viewBox="0 0 220.71 67.45"><defs><style>.cls-1{fill:#fff;}</style></defs><title>Asset 2</title><g id="Layer_2" data-name="Layer 2"><g id="Layer_2-2" data-name="Layer 2"><g id="_Group_" data-name="&lt;Group&gt;"><g id="_Group_2" data-name="&lt;Group&gt;"><g id="_Group_3" data-name="&lt;Group&gt;"><g id="_Group_4" data-name="&lt;Group&gt;"><path id="_Compound_Path_" data-name="&lt;Compound Path&gt;" class="cls-1" d="M84.15.39h9.32c5.44,0,8.74,3.23,8.74,7.89v.07c0,5.28-4.11,8-9.23,8H89.17v6.85h-5Zm9,11.51c2.51,0,4-1.5,4-3.46V8.38c0-2.25-1.56-3.46-4.07-3.46H89.17v7Z"/><path id="_Compound_Path_2" data-name="&lt;Compound Path&gt;" class="cls-1" d="M121.55,11.87V11.8A11.6,11.6,0,0,1,133.45,0a11.77,11.77,0,0,1,9,3.52L139.25,7.2a8.42,8.42,0,0,0-5.84-2.58c-3.85,0-6.62,3.19-6.62,7.11v.07c0,3.91,2.71,7.17,6.62,7.17,2.61,0,4.21-1,6-2.67l3.19,3.23a11.66,11.66,0,0,1-9.36,4.07A11.52,11.52,0,0,1,121.55,11.87Z"/><path id="_Compound_Path_3" data-name="&lt;Compound Path&gt;" class="cls-1" d="M143.3,14.57v-.06a9.46,9.46,0,0,1,18.91-.07v.07a9.46,9.46,0,0,1-18.91.06Zm14,0v-.06a4.64,4.64,0,0,0-4.6-4.83,4.48,4.48,0,0,0-4.53,4.76v.07a4.64,4.64,0,0,0,4.6,4.82A4.48,4.48,0,0,0,157.31,14.57Z"/><path id="_Compound_Path_4" data-name="&lt;Compound Path&gt;" class="cls-1" d="M164.16,5.93h5V8.41a6.18,6.18,0,0,1,5.12-2.8c3.75,0,5.93,2.48,5.93,6.49V23.41h-5V13.66c0-2.35-1.11-3.55-3-3.55s-3.1,1.21-3.1,3.55v9.75h-5Z"/><g id="_Group_5" data-name="&lt;Group&gt;"><path id="_Compound_Path_5" data-name="&lt;Compound Path&gt;" class="cls-1" d="M186,.59h1.7v15l14.54-15h2.31l-10,10.07L205,23.41h-2.22l-9.39-11.54-5.67,5.74v5.8H186Z"/><path id="_Compound_Path_6" data-name="&lt;Compound Path&gt;" class="cls-1" d="M205.2,15.13v-.07c0-4.82,3.39-8.67,7.89-8.67,4.66,0,7.63,3.78,7.63,8.7a4.15,4.15,0,0,1,0,.65H206.89c.29,4.14,3.26,6.55,6.52,6.55a7.47,7.47,0,0,0,5.7-2.61l1.11,1a8.74,8.74,0,0,1-6.88,3.13C209,23.8,205.2,20.31,205.2,15.13ZM219,14.31c-.23-3.36-2.15-6.45-6-6.45-3.29,0-5.84,2.77-6.13,6.45Z"/></g><polygon id="_Path_" data-name="&lt;Path&gt;" class="cls-1" points="115.58 5.74 111.66 17.34 107.97 5.74 102.55 5.74 109.42 23.95 106.74 32 111.66 32 120.73 5.74 115.58 5.74"/></g><g id="_Group_6" data-name="&lt;Group&gt;"><path id="_Compound_Path_7" data-name="&lt;Compound Path&gt;" class="cls-1" d="M84.15,65.8,98,52.67c5.23-4.9,6.45-7.67,6.45-10.5,0-4.1-3.53-7.3-8.19-7.3s-7.72,2.59-10,6.45L85,40.52c2.45-4.19,5.89-7.06,11.39-7.06,5.74,0,9.75,3.81,9.75,8.57v.09c0,3.53-1.51,6.31-7.06,11.58L86.74,65.38h19.82v1.51H84.15Z"/><path id="_Compound_Path_8" data-name="&lt;Compound Path&gt;" class="cls-1" d="M110,50.46v-.09c0-9,5.08-17,13.56-17s13.56,7.91,13.56,17v.09c0,9-5.08,17-13.56,17S110,59.54,110,50.46Zm25.47,0v-.09c0-8.1-4.47-15.58-12-15.58s-11.86,7.34-11.86,15.49v.09c0,8.1,4.47,15.58,12,15.58S135.52,58.6,135.52,50.5Z"/><path id="_Compound_Path_9" data-name="&lt;Compound Path&gt;" class="cls-1" d="M145.83,35.44l-6.21,2.5-.52-1.27,7.06-3h1.22V66.89h-1.55Z"/><path id="_Compound_Path_10" data-name="&lt;Compound Path&gt;" class="cls-1" d="M173,35.44H153.17V33.93h21.61V35L159,66.89h-1.74Z"/></g></g><g id="_Group_7" data-name="&lt;Group&gt;"><g id="_Group_8" data-name="&lt;Group&gt;"><g id="_Group_9" data-name="&lt;Group&gt;"><ellipse id="_Path_2" data-name="&lt;Path&gt;" class="cls-1" cx="29.19" cy="25.32" rx="0.99" ry="1"/><ellipse id="_Path_3" data-name="&lt;Path&gt;" class="cls-1" cx="35.1" cy="42" rx="0.99" ry="1"/><path id="_Compound_Path_11" data-name="&lt;Compound Path&gt;" class="cls-1" d="M39.63,15.8l-14.86,0L14.24,26.26l0,14.86L24.7,51.65l14.86,0L50.09,41.19l0-14.86ZM26.24,39H24.43c-1.53,0-2.42-1.11-2.79-2.66a9.82,9.82,0,0,1,0-5.34,3.28,3.28,0,0,1,3.28-2.66h7.23v-.67H26.89v-2c0-1.52.4-2.34,2.63-2.73A15,15,0,0,1,32,22.71a16.39,16.39,0,0,1,2.74.21,2.93,2.93,0,0,1,2.63,2.73v5a2.65,2.65,0,0,1-2.63,2.67H29.52a3.34,3.34,0,0,0-3.28,3.27Zm16.42-2.66C42.13,37.93,41.56,39,40,39H32.15v.67H37.4v2c0,1.52-1.3,2.29-2.63,2.67a8.79,8.79,0,0,1-5.25,0c-1.39-.41-2.63-1.25-2.63-2.67v-5A2.68,2.68,0,0,1,29.52,34h5.25a3.37,3.37,0,0,0,3.28-3.33V28.33h2c1.53,0,2.25,1.14,2.63,2.66A9,9,0,0,1,42.66,36.33Z"/></g><path id="_Compound_Path_12" data-name="&lt;Compound Path&gt;" class="cls-1" d="M32.16,7.19l1.94,3.36H30.22l1.94-3.36m0-4.86L26,13H38.31L32.16,2.33Z"/><path id="_Compound_Path_13" data-name="&lt;Compound Path&gt;" class="cls-1" d="M55.35,31.79l3.36,1.94-3.36,1.94V31.79m-2.43-4.21V39.87l10.64-6.14L52.92,27.58Z"/><path id="_Compound_Path_14" data-name="&lt;Compound Path&gt;" class="cls-1" d="M34.1,56.91l-1.94,3.36-1.94-3.36H34.1m4.21-2.43H26l6.14,10.64,6.14-10.64Z"/><path id="_Compound_Path_15" data-name="&lt;Compound Path&gt;" class="cls-1" d="M9,31.79v3.88L5.62,33.73,9,31.79m2.43-4.21L.77,33.73l10.64,6.14V27.58Z"/><path id="_Compound_Path_16" data-name="&lt;Compound Path&gt;" class="cls-1" d="M22.61,5.41l-.52,3.84L19,6.88l3.59-1.47m3-3.84L14.21,6.23l9.72,7.51L25.58,1.56Z"/><path id="_Compound_Path_17" data-name="&lt;Compound Path&gt;" class="cls-1" d="M41.85,5.45l3.58,1.5L42.35,9.29l-.49-3.85M38.91,1.58l1.56,12.19,9.77-7.45L38.91,1.58Z"/><path id="_Compound_Path_18" data-name="&lt;Compound Path&gt;" class="cls-1" d="M59,20.58l1.47,3.59-3.84-.52L59,20.58m.65-4.81-7.51,9.72,12.18,1.65L59.66,15.77Z"/><path id="_Compound_Path_19" data-name="&lt;Compound Path&gt;" class="cls-1" d="M60.44,43.42,58.95,47,56.6,43.91l3.85-.49m3.86-2.94L52.12,42l7.45,9.77,4.74-11.34Z"/><path id="_Compound_Path_20" data-name="&lt;Compound Path&gt;" class="cls-1" d="M42.24,58.2l3.07,2.37L41.72,62l.52-3.84M40.4,53.71,38.75,65.89l11.37-4.66L40.4,53.71Z"/><path id="_Compound_Path_21" data-name="&lt;Compound Path&gt;" class="cls-1" d="M22,58.16,22.47,62l-3.58-1.5L22,58.16m1.87-4.48-9.77,7.45,11.34,4.74L23.85,53.68Z"/><path id="_Compound_Path_22" data-name="&lt;Compound Path&gt;" class="cls-1" d="M3.84,43.28l3.84.52L5.31,46.87,3.84,43.28M0,40.31,4.66,51.68,12.18,42,0,40.31Z"/><path id="_Compound_Path_23" data-name="&lt;Compound Path&gt;" class="cls-1" d="M5.38,20.46l2.35,3.08L3.88,24l1.5-3.58m-.62-4.82L0,27l12.19-1.56L4.76,15.64Z"/></g><g id="_Group_10" data-name="&lt;Group&gt;"><g id="_Group_11" data-name="&lt;Group&gt;"><path id="_Compound_Path_24" data-name="&lt;Compound Path&gt;" class="cls-1" d="M16.62,17.3,12,12.65V9a1.62,1.62,0,0,0-1.4-1.61L4.63,6.54l.82,5.94a1.63,1.63,0,0,0,1.61,1.4h3.68l4.66,4.66a.87.87,0,1,0,1.23-1.23ZM10.23,12V12l-.1.1-.55-.5c-.33-.3-.76-.72-1.18-1.14l-.69-.71-.07-.07-.38-.4-.5-.56.1-.1h.31a3.25,3.25,0,0,1,.7.07,3,3,0,0,1,.8.28A2.73,2.73,0,0,1,9,9.22a3.26,3.26,0,0,1,.34.29,3.78,3.78,0,0,1,.29.34,2.74,2.74,0,0,1,.24.38,2.58,2.58,0,0,1,.14.31,2.8,2.8,0,0,1,.14.48,3.25,3.25,0,0,1,.07.7A1.66,1.66,0,0,1,10.23,12Z"/><path id="_Compound_Path_25" data-name="&lt;Compound Path&gt;" class="cls-1" d="M47.7,18.53a.86.86,0,0,0,1.23,0l4.66-4.66h3.68a1.63,1.63,0,0,0,1.61-1.4l.82-5.94-5.94.82A1.62,1.62,0,0,0,52.36,9v3.68L47.7,17.3A.87.87,0,0,0,47.7,18.53Zm6.38-6.81a3.25,3.25,0,0,1,.07-.7,2.8,2.8,0,0,1,.14-.48,2.58,2.58,0,0,1,.14-.31,2.74,2.74,0,0,1,.24-.38A3.78,3.78,0,0,1,55,9.51a3.26,3.26,0,0,1,.34-.29A2.73,2.73,0,0,1,55.67,9a3,3,0,0,1,.8-.28,3.25,3.25,0,0,1,.7-.07h.31l.1.1-.5.56-.38.4-.07.07-.69.71c-.43.42-.85.83-1.18,1.14l-.55.5-.1-.1V12A1.66,1.66,0,0,1,54.08,11.72Z"/></g><g id="_Group_12" data-name="&lt;Group&gt;"><path id="_Path_4" data-name="&lt;Path&gt;" class="cls-1" d="M59,61.15a.88.88,0,0,1-.62-.26L47.74,50.21A.88.88,0,1,1,49,49L59.67,59.64a.88.88,0,0,1-.62,1.5Z"/></g><g id="_Group_13" data-name="&lt;Group&gt;"><path id="_Path_5" data-name="&lt;Path&gt;" class="cls-1" d="M5.41,61.15a.88.88,0,0,1-.62-1.5L15.47,49a.88.88,0,1,1,1.24,1.24L6,60.89A.88.88,0,0,1,5.41,61.15Z"/></g></g></g></g></g></g></g></svg>