<svg id="Layer_1" data-name="Layer 1" xmlns="http://www.w3.org/2000/svg" viewBox="0 0 1043.85 309.68"><defs><style>.cls-1{fill:#f15f36;}</style></defs><title>onalogo</title><path class="cls-1" d="M677.07,59.08H677a22.41,22.41,0,0,0-22.41,22.36l-.47,203.41L442.1,65.9l-.09-.09c-.36-.37-.74-.71-1.13-1.05-.17-.16-.34-.33-.52-.47-.37-.31-.76-.59-1.15-.87-.21-.15-.41-.32-.62-.47-.37-.25-.76-.48-1.15-.71s-.61-.37-.92-.53a22.24,22.24,0,0,0-5.8-2.12l-.1,0c-.39-.08-.78-.13-1.18-.19s-.67-.12-1-.16-.65,0-1-.06-.84-.06-1.26-.07H426c-.28,0-.55,0-.82,0s-.8,0-1.2.06-.74.09-1.11.14-.71.09-1.06.16-.76.17-1.14.26-.66.16-1,.25-.74.24-1.11.37-.65.22-1,.35-.7.3-1,.46-.64.29-1,.46-.66.37-1,.56-.61.35-.9.55-.66.46-1,.7-.53.38-.79.59-.7.6-1,.91c-.17.16-.35.29-.52.46l-.1.11c-.35.35-.68.71-1,1.08-.17.19-.35.37-.51.56-.3.36-.57.74-.85,1.12-.16.22-.33.42-.48.64-.26.39-.5.8-.74,1.2-.13.22-.28.44-.4.66a22.27,22.27,0,0,0-2.44,7.34c0,.31-.11.62-.14.94s0,.66-.06,1-.06.83-.07,1.24c0,.05,0,.11,0,.16L403,340a22.42,22.42,0,0,0,22.38,22.46h0a22.41,22.41,0,0,0,22.41-22.36l.47-203.41,212,218.95.09.09c.4.41.83.8,1.27,1.18.13.12.26.25.39.36.57.47,1.16.92,1.77,1.34.19.13.4.24.6.36.43.27.85.54,1.3.79.28.15.57.27.85.41s.76.38,1.15.55.57.21.86.32.81.31,1.23.44.58.15.87.23.84.23,1.27.32.68.11,1,.16.77.13,1.16.17,1,.07,1.55.08c.22,0,.43,0,.65,0h.06c.73,0,1.46,0,2.19-.11.3,0,.59-.08.89-.13s.84-.11,1.26-.19.68-.16,1-.24.72-.17,1.08-.28.67-.23,1-.35.69-.24,1-.38.64-.29,1-.43.68-.31,1-.48.61-.35.91-.53.64-.37.95-.57.62-.44.92-.66.55-.4.82-.61.66-.56,1-.86.38-.32.56-.49l.1-.11c.35-.34.68-.71,1-1.08.17-.19.35-.37.52-.57.3-.36.57-.74.85-1.11.16-.22.34-.43.49-.65.26-.38.49-.79.73-1.18.13-.23.29-.45.41-.68a22.26,22.26,0,0,0,2.45-7.34c0-.31.11-.62.14-.93s0-.66.06-1,.06-.82.07-1.24c0-.06,0-.11,0-.16l.6-258.58A22.41,22.41,0,0,0,677.07,59.08Z" transform="translate(-37.67 -55.53)"/><path class="cls-1" d="M192.51,55.53C107.13,55.53,37.67,125,37.67,210.37s69.46,154.84,154.84,154.84,154.84-69.46,154.84-154.84S277.89,55.53,192.51,55.53Zm0,264.86a110,110,0,1,1,110-110A110.14,110.14,0,0,1,192.51,320.39Z" transform="translate(-37.67 -55.53)"/><path class="cls-1" d="M1074.85,325.13l-274-260.58c-.16-.15-.33-.28-.49-.42s-.61-.54-.93-.8-.51-.39-.77-.58-.61-.44-.93-.65-.57-.36-.86-.53-.62-.36-.94-.53-.61-.3-.92-.44-.65-.3-1-.43-.63-.24-.95-.35-.69-.23-1-.33-.65-.17-1-.25-.7-.16-1-.23-.71-.12-1.07-.16-.66-.09-1-.12-.8,0-1.2-.06c-.22,0-.44,0-.66,0h-.25c-.41,0-.83,0-1.24.06s-.6,0-.9.07-.77.11-1.15.18-.63.09-.94.16-.72.18-1.08.28-.63.16-.94.25-.75.27-1.12.41-.55.2-.82.31-.78.37-1.17.56c-.23.12-.47.22-.7.34s-.73.43-1.09.66-.47.28-.7.44-.61.45-.91.68-.54.4-.79.61-.48.43-.72.65-.59.54-.87.83l-.18.17c-.15.16-.28.33-.43.5s-.54.61-.8.93-.4.52-.59.79-.43.6-.63.91-.37.59-.54.89-.35.61-.51.92-.31.63-.46.95-.29.64-.42,1-.24.65-.36,1-.23.67-.33,1-.18.66-.26,1-.16.69-.23,1-.11.71-.16,1.06-.09.67-.12,1,0,.77-.06,1.16c0,.23,0,.46,0,.7V340.68a21.46,21.46,0,0,0,42.92,0V130.13l237.72,226.1a21.46,21.46,0,1,0,29.58-31.1Z" transform="translate(-37.67 -55.53)"/></svg>