<svg xmlns="http://www.w3.org/2000/svg" xmlns:xlink="http://www.w3.org/1999/xlink" viewBox="0 0 169.1 47.35"><defs><style>.cls-1{fill:none;}.cls-2{fill:#f3752a;}.cls-3{fill:#f06979;}.cls-4{fill:#d95160;}.cls-5{fill:url(#New_Pattern_2);}</style><pattern id="New_Pattern_2" data-name="New Pattern 2" width="100" height="100" patternUnits="userSpaceOnUse" viewBox="0 0 100 100"><g id="_Group_" data-name="&lt;Group&gt;"><rect id="_Path_" data-name="&lt;Path&gt;" class="cls-1" width="100" height="100"/><g id="_Group_2" data-name="&lt;Group&gt;"><g id="_Group_3" data-name="&lt;Group&gt;"><path id="_Compound_Path_" data-name="&lt;Compound Path&gt;" class="cls-2" d="M100,44.75l8.37,14.5H91.63L100,44.75m0-8L84.7,63.25h30.6L100,36.75Z"/></g><g id="_Group_4" data-name="&lt;Group&gt;"><path id="_Compound_Path_2" data-name="&lt;Compound Path&gt;" class="cls-2" d="M100,12.55l8.37,14.5H91.63L100,12.55m0-8L84.7,31.05h30.6L100,4.56Z"/></g><g id="_Group_5" data-name="&lt;Group&gt;"><path id="_Compound_Path_3" data-name="&lt;Compound Path&gt;" class="cls-2" d="M100,76.94l8.37,14.5H91.63L100,76.94m0-8L84.7,95.44h30.6L100,68.95Z"/></g></g><g id="_Group_6" data-name="&lt;Group&gt;"><g id="_Group_7" data-name="&lt;Group&gt;"><path id="_Compound_Path_4" data-name="&lt;Compound Path&gt;" class="cls-3" d="M33.37,40.75,25,55.25l-8.37-14.5H33.37m6.93-4H9.7L25,63.25l15.3-26.5Z"/><path id="_Compound_Path_5" data-name="&lt;Compound Path&gt;" class="cls-2" d="M50,44.75l8.37,14.5H41.63L50,44.75m0-8L34.7,63.25H65.3L50,36.75Z"/><path id="_Compound_Path_6" data-name="&lt;Compound Path&gt;" class="cls-3" d="M83.37,40.75,75,55.25l-8.37-14.5H83.37m6.93-4H59.7L75,63.25l15.3-26.5Z"/><path id="_Compound_Path_7" data-name="&lt;Compound Path&gt;" class="cls-2" d="M0,44.75l8.37,14.5H-8.37L0,44.75m0-8-15.3,26.5H15.3L0,36.75Z"/><path id="_Compound_Path_8" data-name="&lt;Compound Path&gt;" class="cls-2" d="M100,44.75l8.37,14.5H91.63L100,44.75m0-8L84.7,63.25h30.6L100,36.75Z"/></g><g id="_Group_8" data-name="&lt;Group&gt;"><path id="_Compound_Path_9" data-name="&lt;Compound Path&gt;" class="cls-3" d="M33.37,8.56,25,23.06,16.63,8.56H33.37m6.93-4H9.7L25,31.05,40.3,4.56Z"/><path id="_Compound_Path_10" data-name="&lt;Compound Path&gt;" class="cls-2" d="M50,12.55l8.37,14.5H41.63L50,12.55m0-8L34.7,31.05H65.3L50,4.56Z"/><path id="_Compound_Path_11" data-name="&lt;Compound Path&gt;" class="cls-3" d="M83.37,8.56,75,23.06,66.63,8.56H83.37m6.93-4H59.7L75,31.05,90.3,4.56Z"/><path id="_Compound_Path_12" data-name="&lt;Compound Path&gt;" class="cls-2" d="M0,12.55l8.37,14.5H-8.37L0,12.55m0-8-15.3,26.5H15.3L0,4.56Z"/><path id="_Compound_Path_13" data-name="&lt;Compound Path&gt;" class="cls-2" d="M100,12.55l8.37,14.5H91.63L100,12.55m0-8L84.7,31.05h30.6L100,4.56Z"/></g><g id="_Group_9" data-name="&lt;Group&gt;"><path id="_Compound_Path_14" data-name="&lt;Compound Path&gt;" class="cls-3" d="M33.37,72.95,25,87.45l-8.37-14.5H33.37m6.93-4H9.7L25,95.44l15.3-26.5Z"/><path id="_Compound_Path_15" data-name="&lt;Compound Path&gt;" class="cls-2" d="M50,76.94l8.37,14.5H41.63L50,76.94m0-8L34.7,95.44H65.3L50,68.95Z"/><path id="_Compound_Path_16" data-name="&lt;Compound Path&gt;" class="cls-3" d="M83.37,72.95,75,87.45l-8.37-14.5H83.37m6.93-4H59.7L75,95.44l15.3-26.5Z"/><path id="_Compound_Path_17" data-name="&lt;Compound Path&gt;" class="cls-2" d="M0,76.94l8.37,14.5H-8.37L0,76.94m0-8-15.3,26.5H15.3L0,68.95Z"/><path id="_Compound_Path_18" data-name="&lt;Compound Path&gt;" class="cls-2" d="M100,76.94l8.37,14.5H91.63L100,76.94m0-8L84.7,95.44h30.6L100,68.95Z"/></g></g><g id="_Group_10" data-name="&lt;Group&gt;"><g id="_Group_11" data-name="&lt;Group&gt;"><path id="_Compound_Path_19" data-name="&lt;Compound Path&gt;" class="cls-2" d="M0,44.75l8.37,14.5H-8.37L0,44.75m0-8-15.3,26.5H15.3L0,36.75Z"/></g><g id="_Group_12" data-name="&lt;Group&gt;"><path id="_Compound_Path_20" data-name="&lt;Compound Path&gt;" class="cls-2" d="M0,12.55l8.37,14.5H-8.37L0,12.55m0-8-15.3,26.5H15.3L0,4.56Z"/></g><g id="_Group_13" data-name="&lt;Group&gt;"><path id="_Compound_Path_21" data-name="&lt;Compound Path&gt;" class="cls-2" d="M0,76.94l8.37,14.5H-8.37L0,76.94m0-8-15.3,26.5H15.3L0,68.95Z"/></g></g></g></pattern></defs><title>Asset 10</title><g id="Layer_2" data-name="Layer 2"><g id="Layer_3" data-name="Layer 3"><g id="_Rectangle_" data-name="&lt;Rectangle&gt;"><rect id="_Path_2" data-name="&lt;Path&gt;" class="cls-4" width="169.1" height="47.35"/><rect id="_Path_3" data-name="&lt;Path&gt;" class="cls-5" width="169.1" height="47.35"/></g></g></g></svg>