<?xml version="1.0" encoding="UTF-8" standalone="no"?>
<svg
   xmlns:dc="http://purl.org/dc/elements/1.1/"
   xmlns:cc="http://creativecommons.org/ns#"
   xmlns:rdf="http://www.w3.org/1999/02/22-rdf-syntax-ns#"
   xmlns:svg="http://www.w3.org/2000/svg"
   xmlns="http://www.w3.org/2000/svg"
   viewBox="0 0 334.43228 117.9752"
   height="117.9752"
   width="334.43228"
   xml:space="preserve"
   id="svg2"
   version="1.1"><metadata
     id="metadata8"><rdf:RDF><cc:Work
         rdf:about=""><dc:format>image/svg+xml</dc:format><dc:type
           rdf:resource="http://purl.org/dc/dcmitype/StillImage" /><dc:title></dc:title></cc:Work></rdf:RDF></metadata><defs
     id="defs6"><clipPath
       id="clipPath18"
       clipPathUnits="userSpaceOnUse"><path
         id="path16"
         d="M 0,170 H 387.333 V 0 H 0 Z" /></clipPath><clipPath
       id="clipPath102"
       clipPathUnits="userSpaceOnUse"><path
         id="path100"
         d="m 98.372,129.854 h 51.879 V 63.9434 H 98.372 Z" /></clipPath></defs><g
     transform="matrix(1.3333333,0,0,-1.3333333,-102.488,174.82666)"
     id="g10"><g
       id="g12"><g
         clip-path="url(#clipPath18)"
         id="g14"><g
           transform="translate(160.3723,53.0071)"
           id="g20"><path
             id="path22"
             style="fill:#15273f;fill-opacity:1;fill-rule:nonzero;stroke:none"
             d="m 0,0 h 1.478 v -7.911 c 0,-0.739 0.2,-1.059 0.76,-1.059 0.159,0 0.339,0.02 0.519,0.04 v -1.219 c -0.24,-0.1 -0.559,-0.16 -0.939,-0.16 -1.219,0 -1.818,0.72 -1.818,2.138 z m 0.04,1.958 c -0.4,0.399 -0.4,1.039 0,1.418 0.4,0.4 0.999,0.4 1.398,0 0.4,-0.379 0.4,-1.019 0,-1.418 -0.399,-0.38 -0.998,-0.38 -1.398,0" /></g><g
           transform="translate(164.587,42.9381)"
           id="g24"><path
             id="path26"
             style="fill:#15273f;fill-opacity:1;fill-rule:nonzero;stroke:none"
             d="M 0,0 V 10.069 H 1.478 V 8.371 c 0.54,1.119 1.679,1.858 3.177,1.858 2.257,0 3.676,-1.499 3.676,-3.796 V 2.277 c 0,-0.819 0.12,-1.058 0.699,-1.058 0.1,0 0.22,0.02 0.38,0.04 V 0.04 C 9.25,-0.02 9.03,-0.06 8.77,-0.06 7.991,-0.06 6.852,0.16 6.852,2.178 V 6.113 C 6.852,7.791 5.874,8.85 4.275,8.85 2.617,8.85 1.478,7.692 1.478,6.013 V 0 Z" /></g><g
           transform="translate(176.2531,42.9381)"
           id="g28"><path
             id="path30"
             style="fill:#15273f;fill-opacity:1;fill-rule:nonzero;stroke:none"
             d="m 0,0 v 8.69 h -1.618 v 1.379 H 0 v 0.839 c 0,1.299 0.32,2.198 0.979,2.737 0.439,0.38 1.119,0.579 2.058,0.579 0.299,0 0.559,-0.02 0.779,-0.08 v -1.398 c -0.26,0.06 -0.56,0.1 -0.939,0.1 -0.979,0 -1.399,-0.48 -1.399,-1.738 V 10.069 H 3.376 V 8.69 H 1.478 V 0 Z" /></g><g
           transform="translate(181.4266,53.0071)"
           id="g32"><path
             id="path34"
             style="fill:#15273f;fill-opacity:1;fill-rule:nonzero;stroke:none"
             d="m 0,0 h 1.478 v -7.911 c 0,-0.739 0.2,-1.059 0.76,-1.059 0.159,0 0.339,0.02 0.519,0.04 v -1.219 c -0.24,-0.1 -0.559,-0.16 -0.939,-0.16 -1.219,0 -1.818,0.72 -1.818,2.138 z m 0.04,1.958 c -0.4,0.399 -0.4,1.039 0,1.418 0.4,0.4 0.999,0.4 1.398,0 0.4,-0.379 0.4,-1.019 0,-1.418 -0.399,-0.38 -0.998,-0.38 -1.398,0" /></g><g
           transform="translate(185.6413,42.9381)"
           id="g36"><path
             id="path38"
             style="fill:#15273f;fill-opacity:1;fill-rule:nonzero;stroke:none"
             d="M 0,0 V 10.069 H 1.478 V 8.371 c 0.54,1.119 1.679,1.858 3.177,1.858 2.257,0 3.676,-1.499 3.676,-3.796 V 2.277 c 0,-0.819 0.12,-1.058 0.699,-1.058 0.1,0 0.22,0.02 0.38,0.04 V 0.04 C 9.25,-0.02 9.03,-0.06 8.77,-0.06 7.991,-0.06 6.852,0.16 6.852,2.178 V 6.113 C 6.852,7.791 5.874,8.85 4.275,8.85 2.617,8.85 1.478,7.692 1.478,6.013 V 0 Z" /></g><g
           transform="translate(196.7279,53.0071)"
           id="g40"><path
             id="path42"
             style="fill:#15273f;fill-opacity:1;fill-rule:nonzero;stroke:none"
             d="m 0,0 h 1.478 v -7.911 c 0,-0.739 0.2,-1.059 0.76,-1.059 0.159,0 0.339,0.02 0.519,0.04 v -1.219 c -0.24,-0.1 -0.559,-0.16 -0.939,-0.16 -1.219,0 -1.818,0.72 -1.818,2.138 z m 0.04,1.958 c -0.4,0.399 -0.4,1.039 0,1.418 0.4,0.4 0.999,0.4 1.398,0 0.4,-0.379 0.4,-1.019 0,-1.418 -0.399,-0.38 -0.998,-0.38 -1.398,0" /></g><g
           transform="translate(201.1826,51.6286)"
           id="g44"><path
             id="path46"
             style="fill:#15273f;fill-opacity:1;fill-rule:nonzero;stroke:none"
             d="M 0,0 H -1.179 V 1.378 H 0 V 5.234 H 1.478 V 1.378 H 3.816 V 0 H 1.478 v -5.874 c 0,-1.278 0.42,-1.738 1.399,-1.738 0.379,0 0.679,0.02 0.939,0.06 V -8.83 C 3.596,-8.93 3.216,-8.99 2.697,-8.99 0.899,-8.99 0,-7.951 0,-5.874 Z" /></g><g
           transform="translate(214.1479,48.9515)"
           id="g48"><path
             id="path50"
             style="fill:#15273f;fill-opacity:1;fill-rule:nonzero;stroke:none"
             d="m 0,0 c 0,0.819 -0.3,1.518 -0.899,2.098 -0.599,0.579 -1.319,0.879 -2.158,0.879 -0.919,0 -1.718,-0.3 -2.377,-0.879 C -6.093,1.518 -6.453,0.819 -6.513,0 Z m -8.091,-1.019 c 0,1.618 0.479,2.917 1.418,3.896 0.939,0.979 2.158,1.478 3.616,1.478 1.379,0 2.478,-0.479 3.337,-1.458 0.859,-0.959 1.298,-2.138 1.298,-3.556 0,-0.22 0,-0.44 -0.02,-0.64 h -8.171 c 0.08,-2.217 1.499,-3.636 3.596,-3.636 1.379,0 2.198,0.44 3.097,1.399 L 1.059,-4.495 C 0,-5.674 -1.359,-6.273 -3.017,-6.273 c -1.498,0 -2.737,0.479 -3.676,1.418 -0.939,0.939 -1.398,2.198 -1.398,3.756 z" /></g><g
           transform="translate(228.6101,42.9381)"
           id="g52"><path
             id="path54"
             style="fill:#15273f;fill-opacity:1;fill-rule:nonzero;stroke:none"
             d="m 0,0 -4.315,10.069 h 1.558 L 0.499,2.397 3.756,10.069 H 5.334 L 1.019,0 Z" /></g><g
           transform="translate(242.2942,45.1357)"
           id="g56"><path
             id="path58"
             style="fill:#15273f;fill-opacity:1;fill-rule:nonzero;stroke:none"
             d="m 0,0 c 0.719,0.759 1.079,1.698 1.079,2.837 0,1.139 -0.36,2.078 -1.079,2.817 -0.699,0.759 -1.598,1.139 -2.677,1.139 -1.039,0 -1.898,-0.38 -2.597,-1.139 -0.679,-0.739 -1.019,-1.678 -1.019,-2.817 0,-1.139 0.34,-2.078 1.019,-2.837 0.699,-0.739 1.558,-1.119 2.597,-1.119 1.079,0 1.978,0.38 2.677,1.119 M 0.899,6.373 V 7.871 H 2.377 V 0.06 c 0,-0.879 0.2,-1.259 0.76,-1.259 0.159,0 0.339,0.02 0.519,0.04 v -1.118 c -0.24,-0.1 -0.559,-0.16 -0.939,-0.16 -0.44,0 -0.799,0.1 -1.059,0.279 -0.379,0.3 -0.619,0.78 -0.679,1.439 -0.759,-1.179 -1.978,-1.778 -3.656,-1.778 -1.419,0 -2.637,0.499 -3.616,1.518 -0.979,1.019 -1.478,2.298 -1.478,3.816 0,1.518 0.499,2.777 1.478,3.796 0.979,1.019 2.197,1.538 3.616,1.538 1.818,0 2.997,-0.779 3.576,-1.798" /></g><g
           transform="translate(247.5474,56.8628)"
           id="g60"><path
             id="path62"
             style="fill:#15273f;fill-opacity:1;fill-rule:nonzero;stroke:none"
             d="m 0,0 h 1.478 v -11.288 c 0,-1.118 0.32,-1.558 1.259,-1.558 0.34,0 0.579,0.02 0.719,0.04 v -1.259 c -0.18,-0.099 -0.499,-0.159 -0.919,-0.159 -0.619,0 -1.059,0.1 -1.638,0.439 C 0.34,-13.445 0,-12.606 0,-11.387 Z" /></g><g
           transform="translate(252.102,53.0071)"
           id="g64"><path
             id="path66"
             style="fill:#15273f;fill-opacity:1;fill-rule:nonzero;stroke:none"
             d="m 0,0 h 1.478 v -6.113 c 0,-1.678 0.959,-2.737 2.498,-2.737 1.598,0 2.737,1.158 2.737,2.837 V 0 h 1.478 v -7.732 c 0,-0.879 0.2,-1.258 0.759,-1.258 0.16,0 0.34,0.02 0.52,0.04 v -1.119 c -0.22,-0.1 -0.52,-0.16 -0.939,-0.16 -0.54,0 -0.959,0.16 -1.239,0.46 C 7.052,-9.51 6.892,-9.19 6.833,-8.77 6.193,-9.749 5.114,-10.229 3.616,-10.229 1.398,-10.229 0,-8.73 0,-6.433 Z" /></g><g
           transform="translate(270.7007,48.9515)"
           id="g68"><path
             id="path70"
             style="fill:#15273f;fill-opacity:1;fill-rule:nonzero;stroke:none"
             d="m 0,0 c 0,0.819 -0.3,1.518 -0.899,2.098 -0.599,0.579 -1.319,0.879 -2.158,0.879 -0.919,0 -1.718,-0.3 -2.377,-0.879 C -6.093,1.518 -6.453,0.819 -6.513,0 Z m -8.091,-1.019 c 0,1.618 0.479,2.917 1.418,3.896 0.939,0.979 2.158,1.478 3.616,1.478 1.379,0 2.478,-0.479 3.337,-1.458 0.859,-0.959 1.298,-2.138 1.298,-3.556 0,-0.22 0,-0.44 -0.02,-0.64 h -8.171 c 0.08,-2.217 1.499,-3.636 3.596,-3.636 1.379,0 2.198,0.44 3.097,1.399 L 1.059,-4.495 C 0,-5.674 -1.358,-6.273 -3.017,-6.273 c -1.498,0 -2.737,0.479 -3.676,1.418 -0.939,0.939 -1.398,2.198 -1.398,3.756 z" /></g><g
           transform="translate(156.5718,74.4423)"
           id="g72"><path
             id="path74"
             style="fill:#15273f;fill-opacity:1;fill-rule:nonzero;stroke:none"
             d="m 0,0 c 1.653,1.589 2.479,3.496 2.479,5.721 0,2.225 -0.826,4.132 -2.479,5.658 -1.589,1.589 -3.56,2.352 -5.912,2.352 -2.289,0 -4.196,-0.763 -5.785,-2.352 -1.589,-1.526 -2.352,-3.433 -2.352,-5.658 0,-2.225 0.763,-4.132 2.352,-5.721 1.589,-1.526 3.496,-2.289 5.785,-2.289 2.352,0 4.323,0.763 5.912,2.289 m -19.008,17.482 c 3.052,3.242 6.866,4.831 11.38,4.831 4.831,0 8.582,-1.97 9.535,-4.768 v 4.196 h 9.472 V 0.953 c 0,-2.542 0.635,-3.56 2.352,-3.56 0.445,0 1.017,0.064 1.589,0.128 v -7.883 c -1.017,-0.318 -2.415,-0.509 -4.259,-0.509 -2.098,0 -3.878,0.382 -5.213,1.145 -1.462,0.953 -2.416,2.098 -2.86,3.432 -2.098,-3.115 -5.594,-4.64 -10.616,-4.64 -4.514,0 -8.328,1.589 -11.38,4.767 -2.988,3.243 -4.513,7.184 -4.513,11.888 0,4.641 1.525,8.582 4.513,11.761" /></g><g
           transform="translate(175.4511,108.4523)"
           id="g76"><path
             id="path78"
             style="fill:#15273f;fill-opacity:1;fill-rule:nonzero;stroke:none"
             d="m 0,0 h 9.472 v -32.421 c 0,-2.861 1.081,-4.132 3.687,-4.132 0.89,0 1.653,0.064 2.288,0.254 v -8.391 c -1.08,-0.318 -2.606,-0.445 -4.513,-0.445 C 3.623,-45.135 0,-41.384 0,-33.883 Z" /></g><g
           transform="translate(192.6539,96.1833)"
           id="g80"><path
             id="path82"
             style="fill:#15273f;fill-opacity:1;fill-rule:nonzero;stroke:none"
             d="m 0,0 h 9.472 v -18.308 c 0,-3.751 1.97,-6.04 5.53,-6.04 3.497,0 5.913,2.607 5.913,6.358 V 0 h 9.471 v -20.788 c 0,-2.542 0.636,-3.56 2.353,-3.56 0.445,0 1.017,0.064 1.589,0.128 v -7.883 c -1.017,-0.318 -2.416,-0.509 -4.259,-0.509 -2.098,0 -3.878,0.382 -5.213,1.145 -1.462,0.953 -2.416,2.098 -2.861,3.433 -1.589,-3.116 -4.767,-4.705 -9.408,-4.705 C 4.513,-32.739 0,-27.78 0,-19.453 Z" /></g><g
           transform="translate(255.0759,83.8505)"
           id="g84"><path
             id="path86"
             style="fill:#15273f;fill-opacity:1;fill-rule:nonzero;stroke:none"
             d="m 0,0 c 0,2.988 -3.115,5.34 -6.929,5.34 -4.132,0 -7.501,-2.352 -7.756,-5.34 z m -24.284,-3.623 c 0,5.022 1.653,9.09 4.895,12.142 3.242,3.114 7.438,4.64 12.46,4.64 4.895,0 8.836,-1.589 11.888,-4.704 3.051,-3.115 4.577,-6.929 4.577,-11.57 0,-1.081 -0.064,-2.098 -0.127,-3.051 h -24.221 c 0.191,-3.814 3.497,-6.294 8.519,-6.294 2.988,0 5.594,1.018 7.819,3.115 l 5.53,-5.276 c -3.75,-3.878 -8.391,-5.849 -13.794,-5.849 -5.276,0 -9.472,1.526 -12.714,4.514 -3.242,3.051 -4.832,7.056 -4.832,12.078 z" /></g><g
           transform="translate(83.498,98.7323)"
           id="g88"><path
             id="path90"
             style="fill:#15273f;fill-opacity:1;fill-rule:nonzero;stroke:none"
             d="m 0,0 -6.632,-8.395 20.317,-27.095 6.177,8.72 z" /></g><g
           transform="translate(148.8067,126.389)"
           id="g92"><path
             id="path94"
             style="fill:#15273f;fill-opacity:1;fill-rule:nonzero;stroke:none"
             d="m 0,0 -3.616,4.731 -47.998,-67.877 7.851,0.053 c 2.385,0 4.62,1.16 5.992,3.11 l 19.755,28.075 20.058,28.496 0.271,0.388 z" /></g><g
           id="g96"><g
             id="g98" /><g
             id="g110"><g
               style="opacity:0.53999299"
               id="g108"
               clip-path="url(#clipPath102)"><g
                 id="g106"
                 transform="translate(98.372,63.9434)"><path
                   id="path104"
                   style="fill:#15273f;fill-opacity:1;fill-rule:nonzero;stroke:none"
                   d="m 0,0 46.906,65.911 2.973,-3.892 2,-2.616 L 31.846,30.941 12.09,2.866 C 10.851,1.105 8.826,0.054 6.672,0.054 Z" /></g></g></g></g><g
           transform="translate(150.6596,88.8746)"
           id="g112"><path
             id="path114"
             style="fill:#15273f;fill-opacity:1;fill-rule:nonzero;stroke:none"
             d="m 0,0 c -2.505,0 -4.56,-0.837 -6.281,-2.558 -1.693,-1.625 -2.557,-3.699 -2.557,-6.153 0,-2.428 0.861,-4.52 2.557,-6.217 1.727,-1.658 3.837,-2.494 6.281,-2.494 2.528,0 4.681,0.836 6.397,2.484 1.789,1.72 2.695,3.815 2.695,6.227 0,2.439 -0.91,4.516 -2.704,6.173 C 4.711,-0.861 2.555,0 0,0 m -1.716,-24.666 c -4.316,0 -7.974,1.532 -10.874,4.553 -2.902,3.149 -4.318,6.882 -4.318,11.402 0,4.434 1.455,8.229 4.323,11.28 2.88,3.06 6.536,4.611 10.869,4.611 4.431,0 7.996,-1.725 8.872,-4.293 L 8.52,3.113 v 3.495 h 8.07 v -20.087 c 0,-1.984 0.347,-4.261 3.053,-4.261 0.268,0 0.572,0.021 0.889,0.05 v -6.57 c -0.947,-0.227 -2.141,-0.342 -3.559,-0.342 -2.006,0 -3.643,0.354 -4.865,1.052 -1.284,0.839 -2.152,1.871 -2.543,3.046 l -0.45,1.352 -0.797,-1.182 c -1.962,-2.915 -5.244,-4.332 -10.034,-4.332" /></g><g
           transform="translate(186.385,64.0183)"
           id="g116"><path
             id="path118"
             style="fill:#15273f;fill-opacity:1;fill-rule:nonzero;stroke:none"
             d="m 0,0 c -6.886,0 -10.233,3.451 -10.233,10.551 v 33.182 h 8.07 v -31.72 c 0,-3.252 1.436,-4.833 4.388,-4.833 0.609,0 1.131,0.03 1.587,0.093 V 0.291 C 2.888,0.096 1.633,0 0,0" /></g><g
           transform="translate(205.2405,64.1453)"
           id="g120"><path
             id="path122"
             style="fill:#15273f;fill-opacity:1;fill-rule:nonzero;stroke:none"
             d="m 0,0 c -7.553,0 -11.886,4.587 -11.886,12.585 v 18.752 h 8.07 V 13.73 c 0,-4.221 2.33,-6.741 6.232,-6.741 3.893,0 6.613,2.903 6.613,7.058 v 17.29 h 8.07 V 11.25 c 0,-1.984 0.347,-4.261 3.053,-4.261 0.268,0 0.572,0.021 0.888,0.05 V 0.469 C 20.093,0.242 18.899,0.127 17.482,0.127 c -2.006,0 -3.643,0.354 -4.865,1.052 -1.284,0.839 -2.152,1.871 -2.544,3.046 L 9.544,5.813 8.784,4.322 C 7.322,1.454 4.366,0 0,0" /></g><g
           transform="translate(248.1469,89.8917)"
           id="g124"><path
             id="path126"
             style="fill:#15273f;fill-opacity:1;fill-rule:nonzero;stroke:none"
             d="m 0,0 c -4.455,0 -8.169,-2.628 -8.454,-5.982 l -0.065,-0.76 H 7.63 v 0.701 C 7.63,-2.654 4.278,0 0,0 m 0.191,-25.81 c -5.076,0 -9.079,1.416 -12.239,4.328 -3.097,2.916 -4.606,6.699 -4.606,11.563 v 0.254 c 0,4.799 1.573,8.713 4.675,11.632 3.075,2.955 7.104,4.45 11.979,4.45 4.7,0 8.425,-1.47 11.387,-4.494 2.945,-3.007 4.377,-6.631 4.377,-11.079 0,-0.803 -0.036,-1.576 -0.083,-2.35 H -8.62 l 0.037,-0.736 c 0.211,-4.228 3.829,-6.96 9.219,-6.96 2.958,0 5.581,0.962 7.804,2.861 l 4.542,-4.333 C 9.456,-24.083 5.157,-25.81 0.191,-25.81" /></g><g
           transform="translate(318.1214,101.4992)"
           id="g128"><path
             id="path130"
             style="fill:#ec1e27;fill-opacity:1;fill-rule:nonzero;stroke:none"
             d="m 0,0 -0.004,-0.005 c 0.34,-2.072 -0.144,-4.155 -1.368,-5.858 -1.227,-1.708 -3.047,-2.831 -5.12,-3.17 l -7.753,-1.269 -1.274,7.757 c -0.34,2.072 0.149,4.151 1.377,5.86 1.223,1.703 3.038,2.829 5.114,3.173 2.072,0.339 4.152,-0.149 5.86,-1.377 C -1.465,3.887 -0.339,2.072 0,0 m -10.561,15.825 c -4.567,-0.748 -8.567,-3.229 -11.268,-6.986 -2.7,-3.758 -3.78,-8.346 -3.033,-12.913 l 1.275,-7.757 -7.763,-1.271 c -9.428,-1.543 -15.844,-10.471 -14.3,-19.899 1.543,-9.429 10.47,-15.845 19.899,-14.301 4.714,0.771 8.674,3.388 11.263,6.99 2.592,3.607 3.81,8.195 3.038,12.909 l -0.102,0.622 c -0.652,3.983 -10.009,2.57 -9.337,-1.533 l 0.097,-0.618 c 0.704,-4.278 -2.209,-8.332 -6.488,-9.028 -4.278,-0.705 -8.327,2.205 -9.028,6.488 -0.351,2.141 0.2,4.222 1.373,5.854 1.177,1.638 2.973,2.823 5.115,3.174 l 7.762,1.27 9.342,1.53 7.754,1.269 c 4.567,0.748 8.576,3.23 11.277,6.988 1.35,1.879 2.294,3.966 2.805,6.151 0.511,2.185 0.588,4.476 0.219,6.76 -0.748,4.568 -3.226,8.573 -6.983,11.273 -3.763,2.705 -8.349,3.776 -12.917,3.028" /></g></g></g></g></svg>